<svg width="47" height="48" viewBox="0 0 47 48" fill="none" xmlns="http://www.w3.org/2000/svg">
<path d="M21.897 22.2274C16.9573 19.2568 12.0171 16.2866 7.07694 13.316C6.7753 13.1344 6.78 12.6952 7.08548 12.5205C11.9411 9.74343 16.7971 6.96637 21.6527 4.18974C21.7941 4.10899 21.9675 4.10856 22.1089 4.18888C27.097 7.01635 32.0846 9.84383 37.0726 12.6713C37.3802 12.8456 37.3853 13.2878 37.0811 13.4685L22.3708 22.2282C22.2247 22.3154 22.0427 22.315 21.897 22.2274Z" fill="#AB323C"/>
<path d="M19.9944 42.399C14.988 39.4878 9.98161 36.5762 4.97522 33.665C4.79577 33.5607 4.68555 33.3689 4.68555 33.1617V15.6077C4.68555 15.1552 5.17901 14.8754 5.56737 15.1082C10.605 18.1293 15.6425 21.1503 20.6806 24.1709C20.857 24.2768 20.9647 24.4678 20.9634 24.6733C20.9322 30.415 20.901 36.1571 20.8694 41.8988C20.8668 42.3465 20.3815 42.6242 19.9944 42.399Z" fill="#AB323C"/>
<path d="M24.1867 42.399C29.1072 39.4878 34.0282 36.5762 38.9487 33.665C39.1247 33.5607 39.2332 33.3689 39.2332 33.1617V15.6077C39.2332 15.1552 38.7479 14.8754 38.3668 15.1082C33.4155 18.1293 28.4638 21.1503 23.5125 24.1709C23.3391 24.2768 23.2335 24.4678 23.2344 24.6733C23.2651 30.415 23.2959 36.1571 23.3267 41.8988C23.3292 42.3465 23.8065 42.6242 24.1867 42.399Z" fill="#AB323C"/>
<path d="M19.8969 13.6348C19.6906 13.9395 19.2633 14.0181 18.9446 13.81L17.2288 12.6893C16.9174 12.486 16.8366 12.081 17.046 11.7857C17.2544 11.4914 17.6736 11.4157 17.9837 11.6153L19.6927 12.7167C20.0101 12.9209 20.1024 13.3319 19.8969 13.6348Z" fill="#FFF6FF"/>
<path d="M22.9254 11.5663C22.7212 11.8757 22.3051 11.9611 21.9953 11.7569L20.3094 10.6448C20.0001 10.4406 19.9146 10.0244 20.1189 9.71469C20.3231 9.40537 20.7392 9.31992 21.049 9.52414L22.7349 10.6362C23.0442 10.8405 23.1292 11.257 22.9254 11.5663Z" fill="#FFF6FF"/>
<path d="M17.2588 15.1682C17.5668 14.7722 18.0898 15.1336 18.1112 15.1464C19.5727 16.0342 21.0967 15.9586 22.9492 15.3831C23.1641 15.3071 24.3151 14.9849 25.3781 13.7254C26.0023 12.9863 26.0441 11.7759 25.2123 10.736C25.1123 10.6109 24.9453 10.1435 25.2772 9.88241C25.5413 9.6752 25.8844 9.79953 26.0407 9.92214C27.5138 11.0774 27.4348 13.0072 26.4393 14.3778C25.2948 15.9838 22.804 16.6033 22.6647 16.6349C20.825 17.0712 18.6563 17.0143 17.3678 15.9044C17.2131 15.7715 17.0375 15.4528 17.2588 15.1682Z" fill="#FFF6FF"/>
<path d="M9.5844 26.4907H10.2086C10.3094 26.4907 10.4572 26.4689 10.5273 26.3971L11.5125 25.4337C11.6715 25.2568 11.8394 25.2636 11.9765 25.4268L14.7267 28.8977C15.0078 29.2442 14.8894 29.7616 14.5587 29.9936C14.4361 30.0795 14.2866 30.1192 14.1371 30.1171L13.4411 30.1081C13.1715 30.1239 12.9613 30.3777 12.9669 30.6319V33.0915C12.4388 32.7604 12.0436 32.2571 11.9428 31.4475L11.9483 29.8351C11.9299 29.3515 12.5605 29.1477 13.1125 28.8486C13.2249 28.7508 13.1181 28.626 13.0485 28.4936L11.8701 26.9658C11.7526 26.8611 11.6134 26.8081 11.4331 26.9371L11.122 27.2858C11.0567 27.3588 10.9631 27.4007 10.8653 27.4007H9.67924C9.21184 27.4016 9.07812 26.5757 9.5844 26.4907Z" fill="#FFF6FF"/>
<path d="M16.965 35.8441C17.8133 35.3955 17.9673 34.0226 17.309 32.7778C16.6507 31.5329 15.4293 30.8875 14.5809 31.3361C13.7326 31.7847 13.5786 33.1576 14.2369 34.4024C14.8953 35.6473 16.1167 36.2927 16.965 35.8441Z" fill="#FFF6FF"/>
<path d="M16.5725 35.1177C17.0168 34.8827 17.0205 34.0182 16.5808 33.1868C16.1411 32.3554 15.4245 31.8718 14.9802 32.1068C14.5359 32.3418 14.5322 33.2062 14.9719 34.0377C15.4116 34.8691 16.1282 35.3526 16.5725 35.1177Z" fill="#AB323C"/>
<path d="M11.0294 32.9486C11.8778 32.5 12.0318 31.1271 11.3734 29.8823C10.7151 28.6374 9.49372 27.992 8.6454 28.4406C7.79708 28.8892 7.64306 30.2621 8.30139 31.5069C8.95972 32.7518 10.1811 33.3972 11.0294 32.9486Z" fill="#FFF6FF"/>
<path d="M10.8045 25.1322C11.1819 24.8867 11.1543 24.1748 10.7427 23.542C10.3312 22.9093 9.69163 22.5953 9.31422 22.8407C8.93681 23.0862 8.96447 23.7981 9.37601 24.4309C9.78754 25.0637 10.4271 25.3777 10.8045 25.1322Z" fill="#FFF6FF"/>
<path d="M10.635 32.1997C11.0793 31.9647 11.083 31.1002 10.6433 30.2688C10.2036 29.4374 9.48703 28.9539 9.04274 29.1888C8.59845 29.4238 8.59473 30.2883 9.03442 31.1197C9.47412 31.9511 10.1907 32.4347 10.635 32.1997Z" fill="#AB323C"/>
<path d="M12.4305 25.3025L13.6254 26.8064C13.9754 25.9788 14.6218 25.4841 15.5916 25.3901L14.4218 23.8349C13.3785 22.469 11.3871 24.0626 12.4305 25.3025Z" fill="#FFF6FF"/>
<path d="M12.8908 25.0914L13.6145 26.0022C13.8632 25.5165 14.3007 25.2383 14.8057 25.1443L14.0973 24.2023C13.465 23.3751 12.2589 24.3403 12.8908 25.0914Z" fill="#AB323C"/>
<path d="M16.8009 26.9103L15.743 25.6055C14.6745 25.7383 14.3771 25.9344 13.7598 26.9906L14.8052 28.3804C15.8507 29.7493 17.8459 28.1527 16.8009 26.9103Z" fill="#FFF6FF"/>
<path d="M15.283 27.4947C15.3724 27.4947 15.4449 27.4223 15.4449 27.3328C15.4449 27.2434 15.3724 27.1709 15.283 27.1709C15.1936 27.1709 15.1211 27.2434 15.1211 27.3328C15.1211 27.4223 15.1936 27.4947 15.283 27.4947Z" fill="#AB323C"/>
<path d="M15.6562 27.8916C15.7318 27.8916 15.793 27.8304 15.793 27.7549C15.793 27.6794 15.7318 27.6182 15.6562 27.6182C15.5807 27.6182 15.5195 27.6794 15.5195 27.7549C15.5195 27.8304 15.5807 27.8916 15.6562 27.8916Z" fill="#AB323C"/>
<path d="M16.2047 28.0149C16.2854 28.0149 16.3508 27.9495 16.3508 27.8688C16.3508 27.7881 16.2854 27.7227 16.2047 27.7227C16.124 27.7227 16.0586 27.7881 16.0586 27.8688C16.0586 27.9495 16.124 28.0149 16.2047 28.0149Z" fill="#AB323C"/>
<path d="M14.9315 27.9371C15.036 27.9371 15.1207 27.8524 15.1207 27.7479C15.1207 27.6433 15.036 27.5586 14.9315 27.5586C14.8269 27.5586 14.7422 27.6433 14.7422 27.7479C14.7422 27.8524 14.8269 27.9371 14.9315 27.9371Z" fill="#AB323C"/>
<path d="M15.3921 28.4825C15.5127 28.4825 15.6105 28.3848 15.6105 28.2642C15.6105 28.1436 15.5127 28.0459 15.3921 28.0459C15.2716 28.0459 15.1738 28.1436 15.1738 28.2642C15.1738 28.3848 15.2716 28.4825 15.3921 28.4825Z" fill="#AB323C"/>
<path d="M16.0568 28.5911C16.1733 28.5911 16.2678 28.4966 16.2678 28.38C16.2678 28.2634 16.1733 28.1689 16.0568 28.1689C15.9402 28.1689 15.8457 28.2634 15.8457 28.38C15.8457 28.4966 15.9402 28.5911 16.0568 28.5911Z" fill="#AB323C"/>
<path d="M29.6652 24.6319L32.4345 22.9375V26.4656L35.6209 24.5059V27.7051L32.3081 29.6016L32.2953 33.1678L29.6652 34.7357V31.2328L26.7441 32.94V29.8165L29.7032 28.1477L29.6652 24.6319Z" fill="#FFF6FF"/>
</svg>
